<svg width="64" height="64" viewBox="0 0 64 64" fill="none" xmlns="http://www.w3.org/2000/svg">
<path d="M38.02 11.791C35.852 11.791 33.769 11.844 31.815 12.029C29.864 11.844 27.785 11.791 25.615 11.791C14.775 11.791 5.995 13.056 5.995 25.841C5.995 38.624 14.775 63.627 25.616 63.627C27.781 63.627 29.865 62.613 31.816 60.908C33.765 62.613 35.856 63.627 38.021 63.627C48.857 63.627 57.637 38.627 57.637 25.841C57.637 13.054 48.856 11.791 38.02 11.791Z" fill="#E45264"/>
<path d="M40.03 60.713C36.156 59.665 33.205 57.279 29.177 59.419C27.82 60.142 25.784 60.812 24.239 60.327C18.665 58.577 17.322 52.973 15.884 47.786C13.495 39.164 9.38801 24.786 11.874 13.959C8.25001 15.861 5.99701 19.373 5.99701 25.843C5.99701 38.626 14.777 63.629 25.618 63.629C27.783 63.629 29.867 62.615 31.818 60.91C33.767 62.615 35.858 63.629 38.023 63.629C40.043 63.629 41.991 62.759 43.823 61.264C42.578 61.206 41.319 61.062 40.029 60.713" fill="#CD4E64"/>
<path d="M38.709 0.16578C38.438 0.23978 37.843 1.84978 37.853 2.00978C38.081 6.00978 32.404 13.7748 31.546 14.8338C29.56 17.2868 28.956 20.9048 30.482 21.2418C31.95 21.5668 36.721 16.9738 37.715 16.0908C40.147 13.9218 42.246 10.6808 43.257 7.57478C44.322 4.29778 42.948 -1.00522 38.709 0.16578Z" fill="#2BB573"/>
<path d="M51.659 8.68946C49.375 6.26646 39.431 9.10046 37.724 10.6995C36.019 12.3055 42.388 15.2265 45.689 17.2675C49.088 19.3705 52.416 21.6705 54.118 20.0685C55.822 18.4665 53.937 11.1105 51.659 8.68646" fill="#04A69C"/>
</svg>
